<svg width="12" height="14" viewBox="0 0 12 14" fill="none" xmlns="http://www.w3.org/2000/svg">
<g clip-path="url(#clip0_1_201)">
<path d="M6.34516 1.21949C7.27201 0.00713115 8.56055 0.0012207 8.56055 0.0012207C8.56055 0.0012207 8.75222 1.14104 7.83144 2.23905C6.84828 3.41148 5.73078 3.21963 5.73078 3.21963C5.73078 3.21963 5.52094 2.29756 6.34516 1.21949V1.21949ZM5.84866 4.01807C6.32548 4.01807 7.21043 3.3676 8.36232 3.3676C10.3451 3.3676 11.1251 4.76778 11.1251 4.76778C11.1251 4.76778 9.59954 5.54186 9.59954 7.42014C9.59954 9.53901 11.5 10.2692 11.5 10.2692C11.5 10.2692 10.1715 13.9801 8.37708 13.9801C7.55292 13.9801 6.91217 13.4289 6.04378 13.4289C5.15883 13.4289 4.28065 14.0007 3.70868 14.0007C2.0701 14.0007 0 10.4806 0 7.65095C0 4.86701 1.7522 3.4066 3.39569 3.4066C4.46411 3.4066 5.29321 4.01807 5.84866 4.01807V4.01807Z" fill="#999999"/>
</g>
<defs>
<clipPath id="clip0_1_201">
<rect width="11.5" height="14" fill="white"/>
</clipPath>
</defs>
</svg>
