<svg width="14" height="14" viewBox="0 0 14 14" fill="none" xmlns="http://www.w3.org/2000/svg">
<g clip-path="url(#clip0_1_193)">
<path d="M13.9926 7.13102C13.9926 6.55744 13.945 6.13889 13.8419 5.70483H7.13947V8.29366H11.0737C10.9944 8.93702 10.566 9.9059 9.6142 10.557L9.60086 10.6436L11.7201 12.2479L11.8669 12.2622C13.2153 11.0453 13.9926 9.25479 13.9926 7.13102" fill="#4285F4"/>
<path d="M7.13942 13.9519C9.06684 13.9519 10.6849 13.3317 11.8668 12.2621L9.61415 10.5569C9.01134 10.9677 8.20227 11.2544 7.13942 11.2544C5.25164 11.2544 3.6494 10.0376 3.07825 8.35559L2.99453 8.36254L0.790963 10.029L0.762146 10.1073C1.93606 12.3861 4.34736 13.9519 7.13942 13.9519Z" fill="#34A853"/>
<path d="M3.07822 8.35563C2.92752 7.92158 2.8403 7.45648 2.8403 6.97594C2.8403 6.49534 2.92752 6.0303 3.07029 5.59624L3.0663 5.5038L0.835117 3.81055L0.762116 3.84448C0.278291 4.79012 0.000671387 5.85204 0.000671387 6.97594C0.000671387 8.09984 0.278291 9.1617 0.762116 10.1073L3.07822 8.35563" fill="#FBBC05"/>
<path d="M7.13942 2.69735C8.47989 2.69735 9.38411 3.26317 9.8997 3.73602L11.9144 1.81375C10.6771 0.689847 9.06684 0 7.13942 0C4.34736 0 1.93606 1.5657 0.762146 3.84449L3.07032 5.59626C3.6494 3.91428 5.25164 2.69735 7.13942 2.69735" fill="#EB4335"/>
</g>
<defs>
<clipPath id="clip0_1_193">
<rect width="14" height="14" fill="white"/>
</clipPath>
</defs>
</svg>
