<svg width="21" height="24" viewBox="0 0 21 24" fill="none" xmlns="http://www.w3.org/2000/svg">
<path d="M4.53239 6.27406C4.78089 6.52048 5.11667 6.65874 5.46663 6.65874C5.81659 6.65874 6.15238 6.52048 6.40087 6.27406C6.52324 6.15278 6.62037 6.00845 6.68666 5.84943C6.75294 5.6904 6.78707 5.51982 6.78707 5.34753C6.78707 5.17524 6.75294 5.00466 6.68666 4.84564C6.62037 4.68661 6.52324 4.54229 6.40087 4.42101C6.15238 4.17459 5.81659 4.03633 5.46663 4.03633C5.11667 4.03633 4.78089 4.17459 4.53239 4.42101C4.01813 4.93355 4.01813 5.76323 4.53239 6.27406ZM19.6534 13.988C19.9738 13.6705 20.2281 13.2927 20.4017 12.8763C20.5752 12.46 20.6646 12.0134 20.6646 11.5624C20.6646 11.1113 20.5752 10.6647 20.4017 10.2484C20.2281 9.83207 19.9738 9.45425 19.6534 9.13677L11.4938 1.0286C10.8484 0.388352 9.97721 0.0275497 9.06817 0.0240828L3.47302 8.39041e-05C3.01804 -0.00309353 2.56696 0.084005 2.14588 0.256338C1.7248 0.42867 1.34208 0.682813 1.01988 1.00406C0.69768 1.3253 0.442401 1.70726 0.268817 2.12783C0.0952335 2.5484 0.00679149 2.99922 0.00861616 3.4542L0.0497574 9.2362C0.057173 10.1382 0.420689 11.0008 1.06114 11.6361L9.10074 19.6243C9.74979 20.2672 10.6264 20.6279 11.54 20.6279C12.4536 20.6279 13.3303 20.2672 13.9794 19.6243L19.6534 13.988V13.988ZM18.4328 10.3487C18.5931 10.5075 18.7202 10.6964 18.807 10.9045C18.8938 11.1127 18.9385 11.336 18.9385 11.5615C18.9385 11.787 18.8938 12.0103 18.807 12.2185C18.7202 12.4267 18.5931 12.6156 18.4328 12.7743L12.7588 18.414C12.0852 19.0826 10.9932 19.0826 10.3195 18.414L2.27993 10.4241C1.96026 10.1063 1.77912 9.67499 1.77596 9.2242L1.7331 3.4422C1.73196 3.21453 1.77605 2.98891 1.8628 2.77841C1.94955 2.56792 2.07725 2.37676 2.23847 2.21601C2.3997 2.05526 2.59124 1.92814 2.80199 1.84201C3.01274 1.75588 3.2385 1.71247 3.46616 1.71428L9.06131 1.73828C9.51613 1.73979 9.95209 1.92021 10.275 2.24054L18.4346 10.3487H18.4328ZM20.5756 14.9993C20.8059 15.6156 20.854 16.2851 20.7142 16.928C20.5743 17.5709 20.2525 18.1599 19.7871 18.6249L16.4204 21.9916C15.7837 22.6283 15.0278 23.1334 14.1958 23.478C13.3639 23.8226 12.4722 24 11.5718 24C10.6713 24 9.77962 23.8226 8.94769 23.478C8.11576 23.1334 7.35986 22.6283 6.72314 21.9916L0.754296 16.0227C0.271946 15.541 0.000645687 14.8874 4.55379e-05 14.2057V12.8686L6.72314 19.5917C6.84142 19.71 6.96313 19.8231 7.08655 19.9294L7.93508 20.7796C8.41263 21.2573 8.97958 21.6361 9.60357 21.8946C10.2276 22.1531 10.8963 22.2862 11.5718 22.2862C12.2472 22.2862 12.916 22.1531 13.5399 21.8946C14.1639 21.6361 14.7309 21.2573 15.2084 20.7796L16.0638 19.9242C16.1865 19.8176 16.3054 19.7066 16.4204 19.5917L19.7871 16.225C20.135 15.8779 20.404 15.4598 20.5756 14.9993V14.9993Z" fill="black"/>
</svg>
