<svg width="18" height="18" viewBox="0 0 18 18" fill="none" xmlns="http://www.w3.org/2000/svg">
<path d="M9.00005 3.85718C8.36433 3.85718 7.74288 4.04569 7.21429 4.39888C6.68571 4.75207 6.27372 5.25408 6.03044 5.84141C5.78716 6.42874 5.72351 7.07503 5.84753 7.69854C5.97155 8.32205 6.27768 8.89478 6.72721 9.34431C7.17674 9.79383 7.74947 10.1 8.37298 10.224C8.99649 10.348 9.64277 10.2844 10.2301 10.0411C10.8174 9.79779 11.3194 9.38581 11.6726 8.85722C12.0258 8.32864 12.2143 7.70719 12.2143 7.07146C12.2143 6.21898 11.8757 5.40142 11.2729 4.79862C10.6701 4.19582 9.85253 3.85718 9.00005 3.85718ZM9.00005 9.00003C8.61862 9.00003 8.24575 8.88692 7.9286 8.67501C7.61144 8.4631 7.36425 8.1619 7.21829 7.8095C7.07232 7.45709 7.03412 7.06932 7.10854 6.69522C7.18295 6.32111 7.36663 5.97747 7.63635 5.70776C7.90606 5.43804 8.2497 5.25436 8.62381 5.17995C8.99791 5.10553 9.38569 5.14373 9.73809 5.2897C10.0905 5.43566 10.3917 5.68285 10.6036 6.00001C10.8155 6.31716 10.9286 6.69003 10.9286 7.07146C10.9281 7.58279 10.7248 8.07304 10.3632 8.4346C10.0016 8.79617 9.51139 8.99952 9.00005 9.00003Z" fill="white"/>
<path d="M9 0C7.21997 0 5.47991 0.527841 3.99987 1.51677C2.51983 2.50571 1.36628 3.91131 0.685088 5.55585C0.00389955 7.20038 -0.17433 9.00998 0.172936 10.7558C0.520203 12.5016 1.37737 14.1053 2.63604 15.364C3.89471 16.6226 5.49836 17.4798 7.24419 17.8271C8.99002 18.1743 10.7996 17.9961 12.4442 17.3149C14.0887 16.6337 15.4943 15.4802 16.4832 14.0001C17.4722 12.5201 18 10.78 18 9C17.9973 6.61389 17.0482 4.32628 15.361 2.63905C13.6737 0.951808 11.3861 0.00272232 9 0V0ZM5.14286 15.6709V14.7857C5.14337 14.2744 5.34672 13.7841 5.70829 13.4226C6.06986 13.061 6.5601 12.8577 7.07143 12.8571H10.9286C11.4399 12.8577 11.9301 13.061 12.2917 13.4226C12.6533 13.7841 12.8566 14.2744 12.8571 14.7857V15.6709C11.6866 16.3544 10.3555 16.7146 9 16.7146C7.64453 16.7146 6.3134 16.3544 5.14286 15.6709V15.6709ZM14.1377 14.7381C14.1249 13.8949 13.7814 13.0905 13.1811 12.4982C12.5808 11.9058 11.7719 11.573 10.9286 11.5714H7.07143C6.22812 11.573 5.41918 11.9058 4.81892 12.4982C4.21865 13.0905 3.8751 13.8949 3.86229 14.7381C2.69651 13.6972 1.8744 12.3267 1.50483 10.8081C1.13525 9.28958 1.23564 7.69458 1.7927 6.23434C2.34976 4.7741 3.33722 3.5175 4.62431 2.63094C5.91141 1.74437 7.43744 1.26966 9.00032 1.26966C10.5632 1.26966 12.0892 1.74437 13.3763 2.63094C14.6634 3.5175 15.6509 4.7741 16.2079 6.23434C16.765 7.69458 16.8654 9.28958 16.4958 10.8081C16.1262 12.3267 15.3041 13.6972 14.1384 14.7381H14.1377Z" fill="white"/>
</svg>
